<svg width="20" height="21" viewBox="0 0 20 21" fill="none" xmlns="http://www.w3.org/2000/svg">
<path fill-rule="evenodd" clip-rule="evenodd" d="M6.41265 11.659C5.87535 11.659 5.43884 11.2225 5.43884 10.6852C5.43884 10.1495 5.87535 9.71301 6.41265 9.71301C6.94995 9.71301 7.38646 10.1495 7.38646 10.6852C7.38646 11.2225 6.94995 11.659 6.41265 11.659ZM10.1983 11.659C9.66105 11.659 9.22454 11.2225 9.22454 10.6852C9.22454 10.1495 9.66105 9.71301 10.1983 9.71301C10.7357 9.71301 11.1722 10.1495 11.1722 10.6852C11.1722 11.2225 10.7357 11.659 10.1983 11.659ZM13.0104 10.6852C13.0104 11.2225 13.4469 11.659 13.9842 11.659C14.5215 11.659 14.958 11.2225 14.958 10.6852C14.958 10.1495 14.5215 9.71301 13.9842 9.71301C13.4469 9.71301 13.0104 10.1495 13.0104 10.6852Z" fill="#828282"/>
<path fill-rule="evenodd" clip-rule="evenodd" d="M10.0166 2.16663C5.17496 2.16663 1.66663 6.12173 1.66663 10.5125C1.66663 11.9146 2.07496 13.3576 2.79163 14.6762C2.92496 14.8941 2.94163 15.1686 2.84996 15.4282L2.29163 17.2977C2.16663 17.7483 2.54996 18.0813 2.97496 17.9478L4.65829 17.4479C5.11663 17.2977 5.47496 17.4888 5.89996 17.7483C7.11663 18.4652 8.63329 18.8333 9.99996 18.8333C14.1333 18.8333 18.3333 15.6368 18.3333 10.4874C18.3333 6.04661 14.75 2.16663 10.0166 2.16663Z" stroke="#828282" stroke-width="1.5" stroke-linecap="round" stroke-linejoin="round"/>
</svg>
