<svg width="20" height="21" viewBox="0 0 20 21" fill="none" xmlns="http://www.w3.org/2000/svg">
<path fill-rule="evenodd" clip-rule="evenodd" d="M9.67612 2.16663C5.25253 2.16663 1.6665 5.67345 1.6665 9.99934C1.6665 14.3252 5.25253 17.8321 9.67612 17.8321C11.5681 17.8321 13.3068 17.1906 14.6773 16.1179L17.2807 18.6572L17.35 18.7155C17.5917 18.8904 17.9344 18.8705 18.1531 18.6561C18.3936 18.4202 18.3931 18.0382 18.1519 17.803L15.5792 15.2935C16.8873 13.8994 17.6857 12.0406 17.6857 9.99934C17.6857 5.67345 14.0997 2.16663 9.67612 2.16663ZM9.67612 3.37307C13.4184 3.37307 16.452 6.33975 16.452 9.99934C16.452 13.6589 13.4184 16.6256 9.67612 16.6256C5.93388 16.6256 2.90019 13.6589 2.90019 9.99934C2.90019 6.33975 5.93388 3.37307 9.67612 3.37307Z" fill="url(#paint0_linear_360_1732)"/>
<defs>
<linearGradient id="paint0_linear_360_1732" x1="18.3332" y1="18.8333" x2="1.39503" y2="18.5527" gradientUnits="userSpaceOnUse">
<stop stop-color="#888BF4"/>
<stop offset="1" stop-color="#5151C6"/>
</linearGradient>
</defs>
</svg>
